<svg xmlns="http://www.w3.org/2000/svg" width="64" height="64" viewBox="0 0 64 64" fill="none">
  <defs>
    <linearGradient id="g" x1="0" y1="0" x2="1" y2="1">
      <stop offset="0%" stop-color="#e8954c"/>
      <stop offset="100%" stop-color="#d4704a"/>
    </linearGradient>
    <linearGradient id="g2" x1="0" y1="0" x2="0" y2="1">
      <stop offset="0%" stop-color="#f0a860"/>
      <stop offset="100%" stop-color="#e8954c"/>
    </linearGradient>
    <linearGradient id="g3" x1="0" y1="1" x2="1" y2="0">
      <stop offset="0%" stop-color="#d4704a"/>
      <stop offset="100%" stop-color="#f0a860"/>
    </linearGradient>
  </defs>

  <!-- Outer hexagon -->
  <polygon points="32,4 56,18 56,46 32,60 8,46 8,18" fill="url(#g)" rx="0"/>

  <!-- Inner layers suggesting neural/RAG connections -->
  <!-- Center circle -->
  <circle cx="32" cy="32" r="10" fill="white" opacity="0.9"/>

  <!-- Connection nodes -->
  <circle cx="32" cy="14" r="5" fill="white" opacity="0.95"/>
  <circle cx="44" cy="24" r="4.5" fill="white" opacity="0.85"/>
  <circle cx="44" cy="40" r="4.5" fill="white" opacity="0.85"/>
  <circle cx="32" cy="50" r="5" fill="white" opacity="0.95"/>
  <circle cx="20" cy="40" r="4.5" fill="white" opacity="0.85"/>
  <circle cx="20" cy="24" r="4.5" fill="white" opacity="0.85"/>

  <!-- Connection lines -->
  <line x1="32" y1="19" x2="32" y2="22" stroke="white" stroke-width="1.5" opacity="0.6"/>
  <line x1="39.5" y1="28.5" x2="37" y2="28" stroke="white" stroke-width="1.5" opacity="0.6"/>
  <line x1="39.5" y1="35.5" x2="37" y2="36" stroke="white" stroke-width="1.5" opacity="0.6"/>
  <line x1="32" y1="42" x2="32" y2="45" stroke="white" stroke-width="1.5" opacity="0.6"/>
  <line x1="24.5" y1="35.5" x2="27" y2="36" stroke="white" stroke-width="1.5" opacity="0.6"/>
  <line x1="24.5" y1="28.5" x2="27" y2="28" stroke="white" stroke-width="1.5" opacity="0.6"/>

  <!-- Center dot -->
  <circle cx="32" cy="32" r="3" fill="white"/>
</svg>
